<?xml version="1.0" standalone="no"?>
<!DOCTYPE svg PUBLIC "-//W3C//DTD SVG 20010904//EN"
 "http://www.w3.org/TR/2001/REC-SVG-20010904/DTD/svg10.dtd">
<svg version="1.0" xmlns="http://www.w3.org/2000/svg"
 width="1919.000000pt" height="813.000000pt" viewBox="0 0 1919.000000 813.000000"
 preserveAspectRatio="xMidYMid meet">

<g transform="translate(0.000000,813.000000) scale(0.100000,-0.100000)"
fill="#000000" stroke="none">
<path d="M11830 5368 c-122 -19 -238 -32 -545 -62 -82 -8 -177 -18 -210 -21
-46 -5 -56 -3 -45 5 15 11 -29 11 -395 -4 -72 -3 -100 -2 -80 4 23 6 13 8 -45
8 -41 -1 -106 2 -145 5 l-70 7 64 -15 c97 -22 95 -23 -24 -24 -61 0 -101 4
-90 8 51 20 -201 28 -349 11 -68 -8 -91 -8 -97 1 -6 10 -48 10 -191 0 -100 -6
-232 -9 -293 -7 -69 3 -97 2 -75 -3 49 -12 24 -12 -120 -1 -76 6 -158 6 -210
0 -47 -5 -213 -12 -370 -15 -288 -5 -513 -17 -650 -35 -41 -5 -93 -9 -115 -8
-37 0 -36 1 14 9 84 14 74 20 -24 16 -68 -4 -78 -3 -40 3 37 6 25 7 -45 4 -52
-2 -187 -7 -300 -10 -113 -3 -212 -8 -220 -11 -29 -12 -631 -21 -790 -13 -42
3 -88 -3 -130 -14 -36 -10 -85 -22 -109 -27 -24 -5 -49 -13 -55 -18 -21 -16
-127 -23 -144 -9 -12 10 -14 10 -8 1 5 -9 0 -13 -16 -14 -13 -1 -30 -2 -40 -3
-9 -1 -20 -5 -25 -10 -5 -6 -2 -6 7 -1 10 6 9 1 -4 -13 -10 -12 -23 -20 -30
-19 -6 1 -10 -9 -8 -23 2 -20 1 -22 -8 -10 -9 12 -10 12 -6 -5 2 -11 8 -147
11 -302 6 -221 4 -289 -6 -320 l-13 -38 -7 35 c-4 24 -7 7 -7 -50 0 -61 2 -79
9 -65 6 14 8 -8 4 -65 -3 -47 -6 -101 -7 -120 -1 -19 -5 8 -8 60 -4 66 -7 20
-8 -155 -2 -262 8 -487 33 -742 22 -220 58 -322 145 -412 42 -43 89 -61 160
-61 25 0 113 -11 195 -24 173 -28 642 -62 825 -59 69 0 188 8 265 16 77 9 171
16 208 16 38 0 164 14 280 30 454 65 448 65 1595 62 573 -1 1196 3 1385 9 188
6 500 13 692 16 193 2 465 11 605 18 149 8 256 10 258 5 2 -5 7 -7 11 -5 4 3
75 7 157 11 164 6 169 6 429 35 203 23 216 25 302 47 87 22 106 45 115 141 16
180 8 443 -22 748 -16 166 -32 357 -35 425 -3 68 -12 219 -21 334 -8 116 -19
289 -23 385 -9 191 -24 251 -79 303 -63 60 -61 60 -589 56 -266 -2 -483 -7
-483 -11 0 -5 -39 -8 -86 -8 -54 0 -83 4 -79 10 9 14 -28 11 -175 -12z m1336
-83 c26 -17 63 -86 64 -118 0 -15 -6 -14 -52 10 -53 26 -55 26 -348 34 -162 4
-353 12 -425 18 -71 5 -272 16 -445 23 -386 15 -352 22 190 38 784 22 976 21
1016 -5z m-2183 -12 c-7 -2 -19 -2 -25 0 -7 3 -2 5 12 5 14 0 19 -2 13 -5z
m-2030 -10 c-13 -2 -35 -2 -50 0 -16 2 -5 4 22 4 28 0 40 -2 28 -4z m-110 -13
c-18 -4 -108 -10 -200 -13 -185 -6 -191 -1 -13 12 154 11 256 12 213 1z m-463
-11 c-173 -21 -268 -27 -300 -19 -33 8 -32 8 20 10 30 1 75 5 100 9 25 5 90 8
145 8 98 0 98 0 35 -8z m-340 -29 c11 -7 6 -10 -20 -10 -19 0 -150 -5 -290
-11 -173 -7 -314 -8 -440 -2 l-185 10 145 2 c80 2 182 5 227 7 45 2 84 0 87
-5 4 -5 14 -7 24 -4 62 16 431 27 452 13z m-1597 -17 c-29 -2 -77 -2 -105 0
-29 2 -6 3 52 3 58 0 81 -1 53 -3z m240 -10 c-7 -2 -19 -2 -25 0 -7 3 -2 5 12
5 14 0 19 -2 13 -5z m-536 -19 c-3 -3 -12 -4 -19 -1 -8 3 -5 6 6 6 11 1 17 -2
13 -5z m3242 2 c-12 -12 -334 -42 -484 -46 -54 -2 -64 -4 -45 -11 17 -6 5 -7
-40 -4 -47 3 -58 1 -40 -5 19 -7 14 -8 -21 -4 -26 3 -147 -7 -270 -21 -123
-14 -251 -25 -284 -24 -33 1 -82 1 -110 0 -39 -2 -45 -5 -25 -10 43 -13 -98
-22 -217 -15 -64 4 -130 2 -163 -4 -86 -17 -179 -24 -155 -12 14 7 -14 9 -91
5 -229 -12 -367 -15 -644 -15 -224 -1 -281 -3 -265 -12 15 -9 198 -12 705 -13
559 0 724 3 895 17 116 9 255 20 310 23 55 3 179 15 275 25 96 10 225 22 285
25 61 3 180 12 265 20 150 14 229 20 855 66 266 20 340 21 890 16 613 -6 895
-15 1345 -43 140 -9 369 -19 508 -23 l254 -6 33 -37 c42 -46 50 -76 69 -268
16 -162 26 -936 12 -959 -4 -6 -2 -11 3 -11 6 0 11 -12 11 -26 0 -14 -4 -23
-10 -19 -6 4 -10 -10 -10 -35 0 -22 -4 -48 -9 -58 -14 -28 -31 -87 -31 -108 0
-11 -11 -53 -25 -92 -14 -39 -25 -82 -25 -95 0 -13 -7 -32 -15 -43 -14 -18
-14 -18 -9 3 5 18 3 21 -15 16 -12 -3 -21 -10 -21 -15 0 -5 6 -6 13 -2 8 5 8
2 -2 -9 -16 -20 -25 -22 -16 -4 4 6 -2 3 -12 -8 -31 -35 -77 -63 -123 -75 -25
-6 -56 -19 -69 -27 -16 -10 -57 -17 -122 -19 -54 -3 -111 -9 -126 -15 -22 -8
-30 -7 -39 5 -15 22 -191 21 -383 0 -108 -13 -152 -14 -180 -6 -24 8 -50 8
-79 1 -51 -11 -105 -15 -412 -29 -129 -5 -306 -17 -392 -26 -87 -8 -162 -13
-166 -10 -5 3 -36 1 -68 -5 -32 -6 -99 -12 -149 -14 -49 -2 -124 -10 -166 -19
-42 -9 -85 -14 -95 -10 -14 4 -16 3 -5 -4 9 -6 -7 -10 -50 -10 -35 0 -282 -3
-549 -6 -467 -5 -746 1 -1115 26 -159 11 -934 13 -1000 3 -16 -3 -136 -12
-265 -20 -129 -8 -302 -20 -385 -26 -187 -14 -501 -13 -603 1 -42 6 -131 14
-198 19 -110 7 -124 10 -165 37 -33 22 -46 38 -51 64 -9 44 -31 208 -32 237
-1 11 -4 19 -8 16 -12 -6 -10 51 2 63 6 6 4 19 -5 38 -8 16 -15 39 -15 52 0
12 -4 25 -9 28 -4 3 -11 22 -14 43 -3 21 -9 49 -12 63 -4 21 -4 22 4 5 17 -38
24 11 12 91 -15 99 -14 160 4 350 24 247 110 802 127 820 3 2 83 9 179 14
l174 9 -172 -4 c-190 -3 -188 -4 -158 55 9 17 34 39 58 51 41 21 47 22 287 13
350 -13 1017 -8 1425 11 193 8 481 20 640 26 160 5 382 14 495 18 288 11 304
12 299 7z m-3299 -62 c0 -3 -4 -14 -10 -24 -5 -10 -17 -67 -26 -127 -9 -59
-22 -126 -30 -148 -7 -22 -18 -94 -24 -160 -6 -66 -13 -127 -15 -135 -3 -8 -1
-28 4 -45 5 -16 10 -23 11 -15 0 8 3 44 6 80 6 87 24 189 35 195 4 3 6 -18 3
-47 -10 -103 -46 -384 -54 -423 l-8 -40 -1 43 c-1 26 -5 41 -11 37 -13 -8 -13
8 0 21 12 12 2 47 -11 39 -4 -3 -8 14 -8 37 0 24 -2 63 -5 88 -3 25 -9 95 -13
155 l-8 110 -14 -89 c-12 -77 -11 -118 3 -305 9 -119 16 -265 17 -326 0 -60 3
-144 7 -185 4 -41 5 -100 1 -130 l-5 -55 -5 45 -6 45 -1 -47 c-1 -26 3 -50 9
-54 8 -5 10 -30 6 -78 -3 -47 -2 -64 4 -51 6 13 7 -7 4 -60 -2 -44 -5 -129 -6
-190 -1 -60 -6 -119 -10 -130 -6 -16 -8 -14 -8 13 -1 21 -5 31 -12 26 -10 -6
-7 -77 6 -139 3 -11 -5 0 -16 24 -14 29 -24 79 -30 150 -6 58 -16 171 -24 251
-9 80 -16 240 -16 355 0 215 17 688 27 738 3 16 0 124 -7 241 -7 117 -9 224
-5 239 8 34 42 56 103 67 58 9 143 12 143 4z m7 -86 c-3 -8 -6 -5 -6 6 -1 11
2 17 5 13 3 -3 4 -12 1 -19z m-12 -84 c-6 -61 -33 -157 -34 -125 -1 22 31 191
36 191 3 0 2 -30 -2 -66z m7152 -1458 c-12 -291 -31 -359 -107 -387 -106 -41
-395 -68 -875 -84 -71 -3 -276 -10 -455 -16 -236 -8 -417 -8 -659 0 -184 6
-336 13 -339 15 -2 2 23 12 55 21 62 19 157 26 315 24 98 -1 142 6 133 20 -6
11 113 23 265 26 69 2 148 8 175 15 28 6 95 11 150 10 55 -1 165 5 245 12 82
8 225 13 329 11 121 -2 188 1 197 8 8 6 44 9 89 7 62 -2 73 -1 58 10 -15 10
-12 12 19 12 23 0 41 7 54 21 11 13 26 18 39 15 21 -5 160 56 149 66 -3 3 10
18 29 33 36 27 45 41 53 84 3 14 14 45 24 70 11 25 22 70 24 100 3 29 8 56 12
60 4 3 4 -7 0 -24 -5 -25 -4 -27 5 -12 6 10 9 27 6 38 -3 12 -1 17 5 12 8 -4
9 -58 5 -167z m100 -383 c-7 -7 -27 -17 -44 -22 l-31 -9 25 48 c17 33 26 71
30 126 5 56 9 72 14 54 6 -21 8 -17 10 20 2 25 5 -11 6 -79 3 -94 0 -128 -10
-138z m-784 100 c-7 -2 -21 -2 -30 0 -10 3 -4 5 12 5 17 0 24 -2 18 -5z
m-6466 -163 l26 -20 -37 0 c-42 0 -56 23 -56 88 l0 37 21 -43 c12 -23 33 -51
46 -62z m5200 34 c-3 -3 -12 -4 -19 -1 -8 3 -5 6 6 6 11 1 17 -2 13 -5z
m-5343 -80 c3 -8 2 -12 -4 -9 -6 3 -10 10 -10 16 0 14 7 11 14 -7z m2446 5
c-43 -7 -42 -7 17 -6 34 1 64 -1 68 -5 12 -12 -64 -21 -118 -14 -29 4 -62 7
-74 7 -12 -1 -25 4 -28 10 -5 7 -11 6 -21 -2 -8 -6 -14 -8 -14 -3 0 5 -4 3 -9
-5 -6 -10 -17 -11 -37 -6 -21 6 -24 9 -11 12 9 3 17 8 17 13 0 5 57 8 128 8
92 -1 115 -3 82 -9z m140 -9 c12 -8 11 -10 -7 -10 -13 0 -23 5 -23 10 0 13 11
13 30 0z m93 3 c-7 -2 -19 -2 -25 0 -7 3 -2 5 12 5 14 0 19 -2 13 -5z m-1088
-53 c61 -5 155 -14 210 -19 55 -6 192 -9 305 -8 189 2 199 2 125 -9 -376 -54
-531 -66 -1029 -79 -115 -3 -212 -7 -215 -9 -17 -9 -439 16 -567 34 -82 11
-179 20 -216 20 -79 0 -123 16 -158 56 -21 24 -21 26 -3 10 18 -15 39 -19 105
-19 60 0 73 -2 48 -7 -57 -12 72 -12 150 0 134 20 873 40 945 25 11 -2 36 2
55 10 21 8 55 12 85 9 28 -2 100 -8 160 -14z m2584 6 c-2 -2 -105 -6 -229 -8
-124 -3 -214 -2 -200 2 24 8 438 14 429 6z"/>
<path d="M12790 3220 c-13 -8 -12 -10 3 -10 9 0 17 5 17 10 0 12 -1 12 -20 0z"/>
<path d="M6008 5093 c12 -2 30 -2 40 0 9 3 -1 5 -23 4 -22 0 -30 -2 -17 -4z"/>
<path d="M5948 5083 c6 -2 18 -2 25 0 6 3 1 5 -13 5 -14 0 -19 -2 -12 -5z"/>
<path d="M5903 3735 c0 -38 2 -53 4 -32 2 20 2 52 0 70 -2 17 -4 1 -4 -38z"/>
<path d="M5892 3425 c0 -112 2 -152 9 -134 6 16 6 76 1 160 l-9 134 -1 -160z"/>
<path d="M12758 3143 c6 -2 18 -2 25 0 6 3 1 5 -13 5 -14 0 -19 -2 -12 -5z"/>
<path d="M11450 3083 c-25 -2 -54 -8 -65 -13 -11 -4 -27 -11 -35 -13 -8 -3 -1
-6 17 -6 17 -1 35 4 38 9 3 6 25 10 48 11 23 1 53 5 67 9 l25 8 -25 -1 c-14 0
-45 -2 -70 -4z"/>
<path d="M5783 4525 c0 -27 2 -38 4 -22 2 15 2 37 0 50 -2 12 -4 0 -4 -28z"/>
</g>
</svg>
