<?xml version="1.0" standalone="no"?>
<!DOCTYPE svg PUBLIC "-//W3C//DTD SVG 20010904//EN"
 "http://www.w3.org/TR/2001/REC-SVG-20010904/DTD/svg10.dtd">
<svg version="1.0" xmlns="http://www.w3.org/2000/svg"
 width="1919.000000pt" height="813.000000pt" viewBox="0 0 1919.000000 813.000000"
 preserveAspectRatio="xMidYMid meet">

<g transform="translate(0.000000,813.000000) scale(0.100000,-0.100000)"
fill="#000000" stroke="none">
<path d="M7341 6624 c-14 -18 -21 -41 -21 -70 0 -53 29 -90 110 -139 l59 -36
4 -87 c3 -48 2 -334 -1 -637 -7 -649 -7 -675 3 -785 6 -67 2 -115 -15 -230
-19 -120 -24 -199 -28 -455 -6 -424 -3 -580 14 -635 11 -35 14 -120 14 -380 0
-352 -11 -559 -36 -725 -16 -101 -21 -409 -9 -467 4 -16 0 -59 -9 -96 -8 -37
-17 -78 -18 -91 -3 -20 -14 -28 -63 -43 -90 -30 -115 -51 -115 -100 0 -81 62
-137 136 -123 43 8 91 51 98 89 4 14 8 38 12 52 l5 27 82 -7 c210 -16 312 -27
432 -46 191 -30 597 -43 1070 -36 420 7 571 21 842 76 109 23 250 26 365 8 73
-11 77 -13 97 -49 27 -47 85 -99 112 -99 11 0 29 5 41 11 40 21 62 124 37 171
-15 29 -69 48 -114 41 -26 -4 -40 -2 -46 8 -5 8 -9 124 -9 259 0 283 -14 579
-35 763 -18 152 -19 286 -5 480 8 102 8 176 0 262 -19 198 -22 362 -11 500 39
468 44 878 17 1307 -20 321 -20 341 24 713 11 94 22 195 25 226 l6 55 48 13
c27 7 58 19 69 27 27 19 38 75 22 114 -14 34 -73 90 -95 90 -31 0 -85 -62
-101 -116 l-15 -54 -118 0 c-65 0 -189 8 -277 17 -107 11 -256 17 -454 18
-167 0 -347 6 -415 14 -128 14 -198 11 -391 -16 -116 -16 -124 -16 -215 3
-104 21 -238 23 -554 9 -285 -12 -362 -7 -372 23 -18 55 -55 125 -77 147 -36
36 -97 35 -125 -1z m99 -80 c12 -19 20 -37 18 -40 -10 -9 -58 38 -58 57 0 29
16 23 40 -17z m3038 -77 c18 -30 12 -41 -30 -51 -25 -6 -28 -4 -28 19 0 32 18
67 31 63 6 -2 18 -16 27 -31z m-2029 -99 c100 -22 122 -21 331 13 42 7 117 8
215 2 83 -4 257 -7 387 -5 173 1 300 -3 469 -18 128 -11 288 -20 356 -20 l123
0 0 -32 c0 -18 -7 -76 -14 -128 -46 -306 -53 -675 -22 -1120 18 -254 18 -272
-3 -685 -33 -634 -34 -647 -22 -715 7 -42 11 -203 11 -407 0 -246 6 -405 20
-583 14 -178 20 -336 20 -576 l0 -331 -159 5 c-143 4 -171 2 -277 -21 -338
-73 -326 -72 -1009 -72 -582 0 -630 2 -790 23 -93 12 -208 26 -255 32 -263 33
-335 42 -337 44 -2 1 2 18 7 37 6 18 10 146 9 284 0 137 5 291 10 340 24 212
31 370 31 699 0 313 -2 356 -19 420 -16 57 -19 94 -15 191 2 66 8 275 13 465
6 239 14 377 26 450 13 78 15 131 10 205 -4 55 -5 249 -3 430 4 442 1 991 -6
1037 l-6 36 268 6 c147 2 292 9 322 15 73 12 193 4 309 -21z m2056 -4678 c4
-6 3 -24 0 -41 -8 -37 -29 -35 -59 4 -18 24 -19 29 -6 37 20 13 57 13 65 0z
m-3111 -42 c-11 -37 -25 -49 -53 -46 -38 4 -41 43 -4 56 49 18 65 15 57 -10z"/>
<path d="M8630 6589 c-30 -4 -86 -8 -125 -8 -83 -1 -115 -9 -115 -26 0 -7 15
-15 33 -18 25 -5 438 -1 712 6 22 0 92 -5 155 -13 125 -15 324 -19 336 -7 32
32 -88 46 -383 47 -127 0 -265 4 -305 9 -108 14 -245 18 -308 10z"/>
<path d="M7631 6578 c-41 -15 -6 -35 84 -47 75 -11 375 -8 523 5 69 6 87 29
30 38 -64 10 -613 14 -637 4z"/>
<path d="M9784 6539 c-10 -17 12 -26 100 -39 139 -21 282 -12 255 15 -6 5
-284 35 -326 35 -12 0 -25 -5 -29 -11z"/>
<path d="M7406 6314 c-11 -29 -47 -319 -53 -430 -4 -82 -3 -113 6 -119 17 -10
21 -3 32 46 39 174 52 599 15 503z"/>
<path d="M10475 6268 c-15 -42 -37 -229 -45 -388 -5 -102 -12 -214 -16 -250
-3 -36 1 -173 10 -305 9 -132 16 -317 15 -412 -1 -166 2 -193 21 -193 34 0 51
326 26 489 -18 119 -21 425 -6 636 20 269 24 435 11 435 -6 0 -14 -6 -16 -12z"/>
<path d="M7358 5605 c-3 -11 -6 -81 -6 -155 0 -74 -6 -166 -12 -205 -8 -42
-13 -202 -15 -405 -1 -184 -8 -402 -14 -483 -12 -144 -11 -184 8 -173 15 10
31 93 51 270 24 202 25 327 5 492 -13 114 -13 129 5 234 11 62 20 153 20 204
-1 95 -32 258 -42 221z"/>
<path d="M10456 4479 c-3 -8 -7 -66 -9 -129 -3 -63 -15 -171 -26 -240 -36
-216 -47 -930 -15 -992 29 -56 43 -29 53 98 4 50 1 122 -7 181 -19 145 -8 457
24 644 24 145 32 319 19 392 -8 41 -32 69 -39 46z"/>
<path d="M7326 4023 c-10 -30 2 -987 13 -991 13 -4 42 157 48 271 3 56 0 154
-6 217 -6 63 -16 201 -22 305 -11 188 -20 240 -33 198z"/>
<path d="M7341 2870 c-1 -19 -4 -116 -7 -215 -3 -99 -9 -238 -15 -309 -10
-149 -12 -382 -3 -450 8 -56 30 -61 38 -8 14 88 26 531 16 632 -5 58 -10 155
-11 215 -1 61 -5 124 -9 140 l-8 30 -1 -35z"/>
<path d="M10446 2882 c-16 -27 -25 -277 -16 -467 11 -217 16 -253 31 -238 25
25 39 477 19 617 -11 74 -23 105 -34 88z"/>
<path d="M10447 2073 c-10 -17 -16 -160 -9 -197 8 -46 27 -57 38 -24 9 27 8
156 -1 199 -6 28 -19 37 -28 22z"/>
<path d="M9980 1617 c-19 -7 -35 -19 -35 -27 0 -13 22 -15 137 -15 100 0 141
4 150 13 11 11 10 16 -6 28 -25 18 -195 18 -246 1z"/>
<path d="M7598 1579 c-10 -5 -18 -14 -18 -19 0 -5 8 -11 18 -14 21 -6 175 -23
353 -38 150 -13 723 -17 735 -5 18 17 -18 22 -199 22 -178 1 -295 12 -392 37
-90 23 -465 36 -497 17z"/>
<path d="M9585 1558 c-33 -5 -186 -10 -340 -12 -154 -2 -301 -7 -327 -11 -51
-8 -64 -28 -25 -39 39 -10 440 -7 477 5 19 6 114 14 210 19 178 8 214 14 207
34 -5 14 -122 17 -202 4z"/>
</g>
</svg>
