<svg width="31" height="31" viewBox="0 0 31 31" fill="none" xmlns="http://www.w3.org/2000/svg">
<path fill-rule="evenodd" clip-rule="evenodd" d="M22.3171 1.91641C20.4755 1.02534 18.4608 0.480347 16.4177 0.308674C14.3746 0.1479 12.3116 0.357723 10.3593 0.921794C10.2004 0.992644 10.0358 1.04714 9.8826 1.12889L9.42291 1.36869C9.11928 1.52946 8.81281 1.67934 8.5177 1.84556L7.66073 2.39056C7.51885 2.48048 7.37697 2.56496 7.23793 2.66306L6.84066 2.96825L6.05463 3.57047L5.3282 4.22992C5.20902 4.33892 5.08416 4.44519 4.97066 4.55692L4.64149 4.91389C4.42299 5.15096 4.20166 5.38259 3.98883 5.61966L3.40144 6.37175C3.30496 6.4971 3.20281 6.617 3.112 6.74507L2.85662 7.14292C2.68636 7.40724 2.51043 7.66612 2.34868 7.93044L1.91168 8.75338C1.84074 8.88963 1.76129 9.02316 1.69602 9.16213L1.51725 9.58995L1.16255 10.4374L0.887297 11.3094L0.748253 11.7427L0.654611 12.1869L0.461652 13.0725L0.353822 13.969L0.299907 14.4159C0.280043 14.5658 0.291394 14.7156 0.282881 14.8655L0.263017 15.7648C0.254504 16.0645 0.299907 16.3643 0.314095 16.6613L0.345309 17.1082L0.359497 17.3316L0.396386 17.5523C0.507054 18.1409 0.57232 18.7377 0.759604 19.3072C1.03769 20.4735 1.54847 21.5717 2.10464 22.6372C2.43097 23.144 2.7119 23.6835 3.10065 24.155C3.28794 24.3948 3.45536 24.6482 3.65683 24.8771L4.2726 25.5556C4.46839 25.7927 4.70392 25.9889 4.93093 26.1987C5.16078 26.4003 5.3736 26.6265 5.62047 26.8145C6.11706 27.1824 6.59095 27.5857 7.13293 27.8936C8.17151 28.5858 9.33778 29.079 10.5324 29.5014C11.1425 29.6649 11.7469 29.8801 12.3797 29.9673C12.6947 30.0218 13.0068 30.09 13.3247 30.1336L14.2838 30.2153L14.7633 30.2562L15.2457 30.2507L16.2134 30.2398C16.534 30.2235 16.8547 30.1744 17.1782 30.1445C17.4988 30.1063 17.8251 30.0845 18.1373 30.0055L19.0907 29.8066C19.2525 29.7793 19.4057 29.7275 19.5589 29.6785L20.0243 29.5341C20.6543 29.3651 21.2417 29.0872 21.8432 28.8365C23.0067 28.267 24.1389 27.6021 25.115 26.7491C27.1269 25.1087 28.611 22.8906 29.4566 20.4817C29.6013 20.0702 29.8085 19.7923 30.0837 19.5988C30.1093 19.4517 30.1348 19.3072 30.1575 19.1683C30.1689 19.1001 30.1802 19.0293 30.1916 18.9639C30.1972 18.8958 30.2001 18.8276 30.2029 18.7622C30.2171 18.4979 30.2285 18.2499 30.2398 18.021C30.2455 17.7921 30.2597 17.5823 30.2512 17.3888C30.2341 17.1954 30.2171 17.021 30.1972 16.8629C30.1178 16.2389 30.0185 15.9201 29.8993 15.9201C29.8056 15.9201 29.7063 16.1136 29.5985 16.4733C29.4878 16.8329 29.4027 17.3643 29.187 18.0292C29.3204 18.7241 29.2608 19.4299 29.1814 20.1492C29.1189 20.5035 29.0196 20.8523 28.9231 21.2065C28.838 21.5662 28.6848 21.9014 28.5315 22.2393C28.2506 22.9287 27.8165 23.5473 27.3937 24.1604C27.1525 24.4493 26.9084 24.7327 26.6615 25.0106C26.5991 25.0787 26.5395 25.1523 26.4743 25.2177L26.2671 25.4085L25.8557 25.7818C24.417 27.0489 22.7343 27.9863 20.9721 28.5885C19.2071 29.1935 17.3655 29.466 15.5409 29.466C13.4892 29.4687 11.4603 29.0518 9.63857 28.2479C7.81113 27.4549 6.20503 26.2478 4.96214 24.7953C2.2749 22.054 0.824869 18.2281 1.16255 14.3968C1.1739 14.296 1.22214 14.2306 1.25051 14.1434C1.23916 13.9608 1.23065 13.7782 1.22214 13.5929C1.21646 13.4076 1.20511 13.2196 1.23349 13.0371C1.27038 12.6692 1.31862 12.2959 1.37253 11.9225C1.46618 11.5574 1.56833 11.1922 1.67616 10.8244C1.72156 10.6363 1.80669 10.4647 1.88047 10.2875L2.11316 9.75618C2.17558 9.62538 2.22382 9.4864 2.29476 9.35833L2.50759 8.97683C2.64663 8.72068 2.78851 8.46181 2.92756 8.20566L3.40996 7.46992L3.65116 7.09932L3.92357 6.75052L4.47123 6.04203L5.08416 5.37986L5.39346 5.04469C5.50129 4.93841 5.61764 4.84031 5.73114 4.73677L6.41785 4.11547C8.47514 2.43688 11.1624 1.30602 13.9802 1.12344L14.508 1.08529L14.7719 1.06622L15.0358 1.07167L16.0942 1.10709L16.3581 1.11799L16.622 1.15342L17.147 1.22699L17.6719 1.30329C17.7599 1.31692 17.8478 1.32782 17.933 1.34417L18.1912 1.40684L19.2156 1.66844C19.5561 1.75564 19.8796 1.90006 20.2116 2.01451L20.7053 2.19981C20.8699 2.25703 21.0232 2.34696 21.1821 2.42053L22.1185 2.8865C24.1502 4.03644 25.8585 5.65508 27.0815 7.52714C28.3187 9.39375 29.0054 11.541 29.153 13.6665C29.2466 14.0235 29.363 14.3369 29.4226 14.6175C29.4822 14.8982 29.5389 15.1353 29.5957 15.3288C29.7063 15.7157 29.8113 15.9255 29.9078 15.9255C30.0383 15.9255 30.1462 15.5413 30.2285 14.7838C30.2909 14.405 30.2512 13.939 30.2285 13.3858C30.2199 13.2469 30.2114 13.1025 30.2029 12.9526C30.1916 12.8027 30.1575 12.6528 30.132 12.4948C30.0752 12.1787 30.0128 11.8408 29.9475 11.4865C29.5957 10.0832 28.9515 8.38006 27.7313 6.65788C27.5781 6.4426 27.4249 6.22188 27.2603 6.00388C27.0815 5.79678 26.8971 5.58696 26.7126 5.37441C26.619 5.26814 26.5253 5.16186 26.4289 5.05286L26.2841 4.88936L26.1252 4.73949C25.9124 4.53784 25.6939 4.33347 25.4754 4.12637C25.3647 4.02282 25.2541 3.91655 25.1377 3.81572C25.0157 3.72035 24.8937 3.6277 24.7717 3.5296C24.522 3.33885 24.2723 3.14538 24.0169 2.9519C23.7558 2.76661 23.472 2.60311 23.1911 2.42326C22.9074 2.25158 22.6321 2.05811 22.32 1.91641H22.3171Z" fill="#070707"/>
</svg>
