<svg xmlns="http://www.w3.org/2000/svg" viewBox="0 0 1000 1000" style="enable-background:new 0 0 1000 1000" xml:space="preserve"><path d="M455.9 18.3c-.3-1.3 5.1-2 12.1-2.4 7-.4 15.6-.4 21.6-.7 12.2-.5 24.5-.4 36.8.1l9.2.5 9.2.7c3.1.2 6.1.6 9.2.9 3.1.3 6.1.6 9.2 1.1 12.2 1.5 24.3 3.7 36.4 6.2 12.1 2.5 24 5.7 35.8 9.2 47.2 14.1 92.1 35.6 133.3 62.7 47.7 31.2 89.6 72.5 122.7 119.3 27.1 38.3 48.5 80.6 63.5 125 15 44.4 23.4 91 25.3 137.9 1.5 35.2-1.7 70.6-8.1 105.4-.5 2.5-.9 4.9-1.4 7.4l-1.6 7.3-.8 3.7-.9 3.6-1.7 7.3c-2.5 9.7-5.2 19.3-8.3 28.8-3 9.5-6.5 18.9-10.1 28.3-3.7 9.3-7.6 18.5-11.9 27.5-17 36.2-38.7 70.1-64.1 100.9-12.8 15.4-26.5 29.9-41 43.6-3.7 3.4-7.3 6.8-11.1 10l-5.6 4.9-5.7 4.8-2.9 2.4-2.9 2.3-5.9 4.6-6 4.5c-2 1.5-4 3-6 4.4-16.1 11.7-33 22.5-50.4 32-8.7 4.9-17.6 9.3-26.6 13.6-9 4.2-18.1 8.2-27.4 11.9-44.8 17.8-92.2 28.8-140.2 32.5-48 3.7-96.5.3-143.4-10.2-13.1-2.9-26.1-6.4-39-10.4-12.8-4.1-25.5-8.6-37.9-13.7-12.4-5.1-24.7-10.7-36.7-16.8-12-6.1-23.7-12.8-35.1-19.9-11.4-7.1-22.6-14.6-33.4-22.7-10.8-8-21.2-16.5-31.3-25.4-10.1-8.9-19.8-18.2-29.2-27.8-9.3-9.7-18.2-19.8-26.7-30.2-16.1-19.6-30.6-40.6-43.4-62.6-6.4-11-12.3-22.3-17.8-33.8-5.5-11.5-10.5-23.2-15-35.1-18.2-47.6-28.5-98.2-30.6-149.1l-.2-5.6c-.1-1.9-.1-3.7-.1-5.6 0-3.7-.2-7.5 0-11.2.1-3.7.1-7.5.2-11.2l.5-11.2c.9-14.9 2.4-29.8 4.6-44.6 2.2-14.8 5.2-29.4 8.7-43.9l1.3-5.4c.4-1.8.9-3.6 1.4-5.4l3-10.8c1.1-3.6 2.2-7.1 3.3-10.7l.8-2.7.9-2.6 1.8-5.3c10.2-30.4 23.7-59.8 40-87.4 16.3-27.7 35.2-53.8 56.6-77.8 9.3-10.5 19-20.6 29.4-30.1 10.3-9.5 21-18.7 32.2-27.1 1.4-1.1 2.8-2.2 4.2-3.2l4.3-3.1 8.5-6.2 8.7-5.9 4.4-2.9c1.5-1 3-1.9 4.5-2.8l8.9-5.6c3-1.8 6.1-3.5 9.1-5.3 6-3.6 12.3-6.8 18.5-10.1 15.9-8.2 32.5-15.7 49.3-22 16.9-6.3 34-11.3 51-14.6 25.6-5.1 53.4-7.9 77.7-8.7 2.6 0 5.2-.1 7.8-.1 1.3 0 2.7-.1 4-.1 1.3 0 2.7-.1 4.1 0 2.7 0 5.5.1 8.3.1h4.2c1.4 0 2.8.1 4.2.2 5.7.3 11.4.4 17.1.9 2.8.2 5.7.4 8.5.7l8.4.9c7.3.7 14.6 1.9 21.8 3.1 3.6.6 7.2 1.4 10.8 2.1l5.4 1.1 5.3 1.3c14.3 3.2 28.3 7.4 42.1 12l10.3 3.6c1.7.6 3.4 1.3 5.1 1.9l5.1 2c6.8 2.6 13.4 5.5 20.1 8.4l9.9 4.5c3.3 1.5 6.6 3 9.8 4.7l9.7 4.8 1.2.6 1.2.7 2.4 1.3 4.8 2.7c10.1 6 19.8 13.1 28.8 21.1 9 8 17.3 16.7 25.5 25.5 8.1 8.8 16.1 17.7 24.2 26.1 8.2 8.4 16.6 16.2 25.5 22.8 1.6 1.1 3.3 2.7 5.6 4.7 2.3 1.9 5.1 4.2 8.5 7-3.8-1.3-7.3-2.6-11.1-4.5-3.8-2.1-8.2-4.7-13.6-9.2-.9-.8-1.9-1.5-2.9-2.3-1-.8-1.9-1.6-2.9-2.5-1.9-1.6-3.9-3.3-5.8-4.8-3.7-3.1-7.1-5.5-9.4-6.5-2.4-1.1-5.4-2.9-8.6-5.4-3.2-2.5-6.7-5.6-10.2-9-7.1-6.9-14.3-15.2-20.6-23.3-1.4-1.8-2.7-3.5-4.1-5.1-1.4-1.6-2.8-3.1-4.3-4.6-.7-.7-1.4-1.5-2.2-2.2-.7-.7-1.5-1.4-2.3-2.1-1.5-1.4-3.1-2.7-4.6-4-.4-.3-.8-.7-1.2-1l-1.2-.9c-.8-.6-1.7-1.2-2.5-1.8-1.7-1.2-3.4-2.4-5.2-3.5-1.8-1.1-3.7-2.1-5.6-3.2-1-.5-1.9-1.1-2.9-1.6s-2.1-1-3.1-1.4c-13.6-6.3-27.1-12.5-40.6-18.8-3.4-1.5-6.9-3.1-10.3-4.6-3.5-1.4-7-2.9-10.5-4.3-3.5-1.5-7.1-2.7-10.6-4-3.6-1.2-7.2-2.6-10.9-3.6l-10.1-3c-3.4-1-6.8-1.8-10.1-2.7l-5.1-1.4c-1.7-.5-3.4-.8-5.1-1.2l-10.2-2.4-10.2-2.1c-1.7-.3-3.4-.7-5.1-1.1l-5.1-.9c-3.4-.6-6.8-1.3-10.3-1.8-3.4-.5-6.9-1-10.3-1.5-13.8-1.8-27.5-3.2-41.3-3.7l-5.2-.2c-1.7-.1-3.4 0-5.2-.1-3.4 0-6.9-.1-10.3-.1-3.4.1-6.8.2-10.3.2-1.7.1-3.4 0-5.1.2l-5.1.3c-36.2 2-73.3 10.5-107.3 22.7-18.6 6.5-37.9 15.4-56.7 26.1-18.8 10.6-37 23-53.9 36-1.5 1.1-3.3 3.1-4 3.6-16.8 10-32.7 24.1-47.4 39.4-14.7 15.3-28.1 31.9-41.4 47-1.5 1.7-3.1 3.6-4.7 5.6-1.6 2-3 4-4.3 5.9-16.8 25.4-31.6 52.3-44.2 80.3-6.3 14-11.9 28.3-16.8 42.8-4.9 14.5-9.2 29.2-12.6 44.1-7.6 33.1-12.2 67.1-12.9 101.3-.7 34.2 2.3 68.5 9.4 101.9 12 55.9 33.4 109.9 64 158.2 30.5 48.4 70 91.2 116.2 124.9 8.1 5.8 16.2 11.8 24.7 17.5 4.2 2.9 8.5 5.6 12.8 8.4 2.2 1.4 4.4 2.7 6.6 4 2.2 1.3 4.4 2.7 6.6 3.9 43.1 24.6 90.1 42.5 138.7 52.5 48.7 10.1 98.9 12.5 148.4 7.2 10-1 19.9-2.5 29.9-4.2 9.9-1.8 19.8-3.8 29.5-6.2 19.6-4.7 38.8-10.8 57.6-18 2.4-.9 4.7-1.8 7-2.8l7-2.8 6.9-3 3.5-1.5 3.4-1.6 6.9-3.2 6.8-3.3 3.4-1.7 3.3-1.7 6.7-3.5c8.8-4.8 17.6-9.7 26.2-15 4.3-2.6 8.5-5.4 12.8-8.1l6.3-4.2c2.1-1.4 4.2-2.8 6.2-4.3 35.5-24.7 67.5-54.5 94.8-88.2 27.3-33.7 50-71.3 66.8-111.4 18.4-43.8 30.3-90.4 35-137.6 4.7-47.3 2.5-95.2-6.7-141.8l-.7-3.4-.7-3.4-1.5-6.8c-1-4.5-2.2-9-3.3-13.5-2.4-9-4.8-17.9-7.7-26.7-5.7-17.7-12.2-35.1-19.9-52-7.7-16.9-16.3-33.4-26-49.2-9.7-15.8-20.3-31.1-31.9-45.7-23.1-29-49.4-55.3-78.5-78.2-7.2-5.8-14.7-11.2-22.2-16.6-7.6-5.2-15.3-10.4-23.2-15.2-15.7-9.7-31.9-18.6-48.7-26.4-16.7-7.9-33.9-14.8-51.3-20.7-17.5-5.9-35.3-10.8-53.4-14.8-36.1-7.9-73.1-11.5-110.1-11.4-5.5 0-13.2 1.1-19.7 1.7-6.2.2-11.3.5-11.8-1.3zM416.6 30c-.1.3 2.5.4 4.4.6.7-.2 1.4-.4 2.1-.5.7-.1 1.4-.3 2-.4 1.2-.3 2.1-.5 2.2-.6.2-.4-.2-.7-1.2-.8-1-.1-2.7-.2-5.1.3-1.8.2-4.2 1-4.4 1.4z"/><path d="M553.5 962.8c.1 2.6-4.2 1-6.5 1.2-18.9 2.3-38-.3-57.1.8-2.8.2-5.5.2-8.3.3-2.8 0-5.6-.1-8.4-.1-2.8-.1-5.6-.2-8.4-.4l-8.4-.6c-18.2-1.3-36.4-3.4-54.6-5.5-3.4-.4-6.8-1-10.2-1.7-3.4-.7-6.8-1.5-10.2-2.1-15.4-3-30.6-7.4-45.3-13.1-7.3-3.1-14.5-6.1-21.6-9.6-7-3.5-13.9-7.3-20.6-11.3-16.3-9.6-31.9-20.1-47.2-30.9-8.6-6-17-12.2-25.5-18.4-8.5-6.2-16.9-12.2-25.6-17.9-16.4-10.9-32.9-21.8-48.5-34.2-9.1-7.3-17.7-15.3-26.6-23-2.4-2.1-4.7-4.2-7-6.5l-3.4-3.4-3.2-3.5c-2.1-2.3-4.3-4.6-6.4-7-2.1-2.4-4.1-4.8-6.3-7.1-7.2-8.4-13-18.1-18.5-27.7-1.8-3.1-3.6-6.2-5.3-9.3-1.6-3.1-3.1-6.4-4.2-9.7-1.4-5-3.3-10.2-5-14.6-.8-1.9-1.8-3.8-2.7-5.8-.9-2-2-4-2.9-6-5-10.4-7.5-21.7-10.8-32.5-2.6-8.7-4.1-18.4-10.7-25.6-.6-.6-.7-1.8-1.2-3.5 3.1.7 5.2 1.2 7.2 3.5 1.4 1.5 3.1 3.4 5.3 3.6 4.8.5 8.1 4.4 6.6 9.1-1.3 4.1-.2 6.8 2.3 9.9 4 4.9 3 11.4 5.4 16.9 4.3 10.1 6.7 20.8 9.5 31.3 1 3.4 2.3 6.8 3.6 10.2 1.4 3.3 2.8 6.6 4.2 10 .7 1.8 1.6 3.6 2.6 5.4l1.5 2.7c.6.9 1.1 1.8 1.7 2.6 1.2 1.8 2.4 3.5 3.6 5.2 1.2 1.7 2.6 3.4 3.9 5 .2.3.9.4.9.6.2 4.5 2.8 7.8 5.6 10.8l2.1 2.3c.7.8 1.4 1.5 2.1 2.3 1.3 1.6 2.4 3.3 3.1 5.3.3.9.8 1.9 1.5 2.5 4.8 3.7 9 8 13.3 12.2 4.3 4.2 8.6 8.4 13.1 12.3 10 8.7 19.7 18.2 30.6 25.8 18.4 12.8 35.7 27 54.6 39 3.3 2.1 6.1 5 9.3 7.4 15.5 11.6 31.1 23.2 47.4 33.8 6.6 4.3 13.4 8.2 20.3 12 6.9 3.8 13.9 7.6 20.8 11.3 15 8 30.9 14.6 47.5 18.5 18.1 4.5 36.5 7.8 54.9 10.1 14.4 1.8 28.8 4.1 43.3 4.2 14.5.2 28.9 0 43.3 0 14.4 0 28.8.3 43.1 1.6 2.4.7 6.2-2.4 6.4 1.3zM67 712.9c.3-.1.4-.7.7-1.3-.6-.3-1.1-.8-1.4-.7-.7.2-1.1.8-.6 1.6.3.4 1 .6 1.3.4z"/><defs><circle id="a" cx="487.3" cy="509.1" r="464.1"/></defs><path d="M979 480.8c-1.2.5-1.7-.1-2-1.1-.3-1-.3-2.3-.7-3-1.4-3.2-2.1-6.4-2.5-9.6-.4-3.2-.5-6.2-.5-9.3 0-3 0-6-.1-8.8-.1-1.4-.2-2.8-.4-4.2-.1-.7-.2-1.3-.3-2-.1-.7-.3-1.5-.5-2.2-1.6-6.7-2.1-13.5-2.7-20.3-1.1-11-2.3-22-5.2-32.6-.5-2-.9-4-1.3-6l-.6-3c-.2-1-.5-2-.8-3-2.6-8.9-5.1-17.6-7.9-26.3-.7-2.2-1.5-4.3-2.2-6.5l-2.4-6.7c-1.6-4.5-3.3-8.9-4.9-13.3-4.1-10.8-8.4-21.5-13.2-32-5.3-11.8-10.9-23.5-17.4-34.7-6.1-10.6-12.2-21.3-17.7-32.3-3.2-6.5-5.8-13.3-9.4-19.2-2-3.2-3.7-6.4-5.6-9.5-.9-1.6-1.9-3-2.9-4.5-1-1.4-2.1-2.9-3.2-4.2-2-2.4-3.8-4.7-5.7-7.2-1-1.2-1.9-2.4-2.9-3.6-1-1.2-2-2.4-3.2-3.5-2.8-2.9-6.3-5.2-8.8-8.6-1.9-2.6-4.1-5.1-6.4-6.8-1.9-1.5-4.5-2.8-6.9-4-6.3-3.2-11.4-8.3-17.1-12.5-2.3-1.7-4.5-3.7-6.9-5.4-1.2-.8-2.5-1.5-3.9-2.1-1.4-.5-3-.9-4.7-1-.6 0-1-.7-1.9-1.4 2.5-1.5 4.3-2.5 6.4-2.4 1.4.1 3.2.1 4.9-1.3 3.6-2.8 6.9-2.7 7.3 1 .4 3.2 1.9 4.2 4.6 4.3 4.2.1 5.6 4.7 8.9 6.5 6.1 3.2 11 8.6 15.5 14 3 3.6 6.6 6.5 9.4 10 3 3.9 7.5 7 11.3 10.6.2.2.7.1.7.2-.1 1.7.2 3 .9 4.1.6 1.1 1.5 2 2.4 2.9 1.8 1.8 3.8 3.6 3.9 6.4 0 .6.2 1.3.6 1.7 2.9 2.5 5 5.5 6.9 8.7 1.9 3.2 3.4 6.6 5.1 9.9 1.9 3.7 3.4 7.5 5 11.4 1.6 3.8 3.3 7.7 5.3 11.3 7 12.1 11.6 25.3 19.1 37.1 1.3 2.1 1.8 4.6 2.9 6.9 5.1 10.9 9.7 22.1 14.3 33.2 3.7 9 8.2 17.6 11 27 .7 2.5 1.6 5 2.4 7.5l1.2 3.7 1.2 3.6 2.4 7.3 2.5 7.3c3.7 10.6 6.1 21.7 8.1 32.8 1.5 8.7 1.7 17.7 3.2 26.5.8 4.4 1.5 8.8 2.2 13.2.3 2.2.7 4.4 1 6.6.3 2.2.5 4.3.6 6.5.3 4.4.2 8.9.3 13.4 0 4.6 0 9.2.7 14.1.1.7 1 1.6 1.6 2.3.6.7.7 1.3-1 2.1zM853.1 156.9c.2-.2.2-.7.2-1.3-.5.1-1 .1-1.2.3-.4.5-.6 1.2-.1 1.4.3.2.8-.1 1.1-.4z"/><path d="M859.9 169.7c-1.4 2.1-2.9-.9-4.3-1.5-11.7-5.5-20.5-15.1-31.7-21.3-6.5-3.6-12.4-8-18.3-12.4-9.7-7.1-19.4-14.1-29.9-19.9-3.9-2.1-7.4-5-11.4-7.1-17.6-10-34.4-21-52.4-30.3-11-5.7-22.2-10.9-33.6-15.5-12.8-5.1-26-9.5-39.5-12.1-12.8-2.5-25.7-4.4-38.5-6.6-7.5-1.3-15-3-22.7-3.5-8.2-.5-16.3-2-24.5-2.6-3.6-.2-7.1-.9-10.7-1.6-3.6-.8-7.2-1.5-10.8-2.3-4.5-.9-9.3-1.3-13.5-3.2-3.2-1.4-6.6-2.6-9.7-3.1-1.3-.2-2.7-.3-4.2-.4-1.4 0-2.9-.1-4.4-.1-7.5 0-14.8-1.8-22.1-1.9h-4.5c-1.5 0-3 .1-4.5.3-1.5.2-2.9.7-4.3 1.3-.7.3-1.3.7-2 1.2-.6.5-1.2 1.1-1.7 1.8-.4.5-1.1.4-2.1.7.1-2.8.4-4.9 1.9-6.5 1-1.2 2.4-2.4 2.6-4.6.2-2.3 1.2-4.1 2.5-5 1.3-.8 3-.8 4.6.4 1.4 1.1 2.6 1.6 3.7 1.6 1.2 0 2.3-.5 3.6-1.2 2-1.2 4.2-1 6.3-.6 2.1.5 4.2 1.2 6.2 1.2 7.7-.2 15.1 2.4 22.1 5.2 4.6 1.9 9.5 2.7 14 4.4 4.9 1.9 10.9 2.1 16.5 2.5.2 0 .6-.4.7-.3 4.4 5.4 11 1 15.8 4.6.5.4 1.2.8 1.8.7 8.1-1.1 16.1.7 24 1.6 8.8 1 17.5 3.9 26.3 5 7.4 1 14.7 2.7 21.9 4.6 7.2 1.9 14.4 3.9 21.8 5.3 2.6.5 4.9 1.9 7.5 2.8 12.3 4.3 24.2 9.5 35.9 14.9 4.8 2.1 9.5 4.3 14.3 6.4 2.4 1.1 4.7 2.3 7 3.5 2.3 1.2 4.6 2.4 6.8 3.9 9.5 6 18.9 11.8 28.8 17.1 10.8 5.8 21.2 12.3 31.4 19.1 4 2.6 7.8 5.6 11.7 8.4 3.8 2.9 7.7 5.7 11.8 8.2 16.3 10.1 32.6 20.4 46.8 33.7 1.2 1.1 5.1.2 3 3.2zM513.7 24.4c.1-.3-.2-.7-.4-1.2-.4.3-.9.5-1 .8-.2.7 0 1.4.6 1.3.3 0 .7-.5.8-.9z"/><path d="M27.9 638.6c-2.5.8-2.2-5.4-3.2-8.5-.5-1.6-1-3.1-1.4-4.7-.4-1.6-.8-3.2-1.1-4.7-.7-3.2-1.5-6.4-1.9-9.6-.5-3.2-1-6.4-1.4-9.7-.3-3.2-.6-6.5-.9-9.7-1-12.9-1.5-25.9-2.5-38.7-1.2-14.9-.8-29.9-.3-44.8.8-24.3 2.2-48.5 1.4-72.5-.3-8.9-.1-17.9-.5-27.1-.5-10.3-.7-20.8-.4-31.4.4-10.6 1.3-21.4 3.7-32.1 2.3-10.8 6.1-21.1 10.6-30.8s9.7-19 15.3-27.9c13.6-21.6 29.3-41.3 44.8-61 17.5-22.1 36.3-43.1 55.2-63.9 8.9-9.8 18.1-19.4 27.4-28.9 4.7-4.7 9.3-9.4 14.1-14l7.1-6.9c2.4-2.3 5-4.6 7.4-6.9 11.8-10.6 24.9-19.7 37.8-28.6 6.9-4.9 14.3-9.2 21.7-13.3 3.7-2 7.4-4.1 11.2-6l5.6-2.9 5.6-2.9c13.1-6.7 27.1-11.5 40.8-16.5 2.2-.8 4.4-1.6 6.6-2.5l3.3-1.3c1.1-.4 2.3-.8 3.4-1.2 2.3-.7 4.6-1.5 6.9-2.1 2.3-.5 4.6-1 6.9-1.4 1.7-.3 3.5-.4 5.3-.7 1.8-.2 3.5-.5 5.3-.7 3.5-.4 6.9-.9 10.1-1.4 2.7-.4 5.6-.9 8.5-1.5 2.9-.5 5.9-1.1 8.8-1.6 15.2-2.6 30.5-2.2 45.5-3.6 3-.3 6.1-.5 9.1-.8 3.1-.3 6.2-.6 9.2-1.2l4.5-.9c1.5-.3 3-.8 4.4-1.3 1.4-.5 2.9-1.1 4.3-1.7 1.4-.7 2.7-1.4 4-2.3.9-.6 2.4-.7 4.6-1.3-1.3 3.1-2.3 5.3-5.6 7.4-1.1.7-2.4 1.5-3.5 2.3-1.1.9-2 1.9-2.4 3-1.6 4.9-7.9 7.9-13.9 5.9-2.6-.9-4.9-1.2-7.1-1-2.2.2-4.4.8-6.9 1.8-7.8 3.1-16.1.8-24.1 1.9-7.4 1-14.7 1.4-22.1 1.7-1.8.1-3.6.2-5.5.2l-2.7.1-2.9.6c-1.8.1-3.6.2-5.4.2l-5.4.3c-9.5.7-19.1 3-28.3 5.5-10.1 2.6-20.9 7.7-31.1 12.3-.4.2-.9.9-1.1.9-2.8-.1-5.5.4-8.1 1.3-2.6.9-5.1 2.1-7.5 3.4-2.5 1.3-4.9 2.7-7.4 3.9-2.5 1.2-5 2.2-7.7 2.7-1.2.2-2.6.6-3.6 1.3-13.2 9.1-27.5 16.8-40.5 26.3-1.8 1.3-3.6 2.6-5.4 4-1.8 1.3-3.6 2.6-5.4 4-3.6 2.7-7.2 5.4-10.7 8.2-1.7 1.4-3.5 2.8-5.2 4.3l-5.1 4.5c-3.4 3-6.5 6.1-9.7 9.3-21 21.4-43.7 41.3-62.6 64.7-3.3 4.1-7.4 7.7-10.9 11.7-8.6 9.8-17 19.7-25.2 29.9-8.1 10.2-16.2 20.4-24 30.9-12.5 17-23.5 35.2-33.1 54.2C29.4 325 25.3 336 23 347.5c-2.3 11.4-3.1 23-3 34.5 0 12.5.7 24.9 1 37.3.2 6.2.3 12.3.3 18.4 0 6.2-.1 12.3-.2 18.5-.4 19.3-2.1 38.6-2 58 .2 19.3.7 38.7 1.9 58.1.1 2.4.3 4.8.5 7.3l.5 7.3 1.3 14.5.8 7.3c.3 2.4.5 4.9.8 7.3l1 7.3c.2 1.2.3 2.4.5 3.6l.6 3.6c.4 2.7 4.5 7.1.9 8.1zM362.5 28.4c0 .3.8.5 1.4.9.7-.5 1.5-.9 1.5-1.2 0-.7-.7-1.3-1.8-.9-.6.2-1.1.9-1.1 1.2z"/><path d="M477.9 21.6c0 2.6-.1 1-.1 1.2-.4 2.3-.9-.3-1.3 1.3-.3.9-.5.7-.8.6-.4-.2-.8-.4-1.2.5-.2.3-.3-.1-.5.1-.7.9-1.4-.6-2.1-1.9-.4-.8-.9-1.4-1.3-1.8-.5-.4-1-.5-1.4.3-.5.8-.9 1.5-1.4 1.6-.3.1-.5-.3-.8.3-.3.7-.6.4-.8.9-.2.5-.5-.6-.7-1-.2-.3-.3.1-.5-1.2-.1-1-.2-1.7-.3-1.9-.1-.1-.2.2-.3.4-.3.7-.5-.9-.8-1.2-.2-.3-.4-1.8-.6 2.2 0 .4 0 .1-.1.1 0-2.7.1-4.6.1-5.9 0-.8.1-1.9.1-4 0-4.4.2-6.3.2-3.5.1 2.5.1 2.4.2.9.1-2.2.3.9.4.6.3-.5.5 1.3.8 3.3.2 1.3.3 1.4.5 2.5s.4.5.6.1v-.4c.2 4.8.4-.4.6 2.5 0 .3 0 .6.1.4.3-2.2.5-1.6.8-2 .3-.4.6.9.9.3.5-1 1 .8 1.5-.7.1-.3.2.4.3.5.4.3.9 1 1.3 1.6.4.5.7 0 1.1 1.2.4 1.2.8 1.8 1.2 1.3.4-.5.8-.7 1.3-.8.3-.1.7.9 1 .2.7-1.2 1.3-2.6 2-.1-.1.8 0-2.2 0 1.5zm-13.2-3.7v-1.2 2.1-.9zM82.7 742.7c-2.4.8-1.2-.5-1.6-.8-1.7-1.4-2.3-3.2-2.9-5-.2-.9-.6-1.8-1-2.7-.4-.9-1-1.7-1.7-2.4-.9-.8-1.5-1.7-2-2.7-.6-1-1.1-2-1.5-3-.8-1.7-1.5-3.3-2.5-4.9-1-1.6-2.1-3.1-3.4-4.5-.5-.5-.8-1.1-1.2-1.7-.3-.6-.7-1.2-1.1-1.8-4.1-4.9-6.5-11-9.2-17.1-1.6-3.7-3.4-7.3-5.4-10.8-2.3-3.9-4.7-7.6-7.9-10.9-1.5-1.6-3-3.1-4.4-4.7-1.4-1.6-2.8-3.3-4-5.1-1.5-2-2.4-4.5-4.2-6.3-1-1-1.8-2.1-2.6-3.3-.7-1.2-1.4-2.4-2.3-3.5-1.5-1.9-1.8-4.5-2.4-6.9-.4-1.5-1.4-2.8-.8-4.7.4-1.4.6-2.8.4-3.8-.2-.9-.8-1.7-1.4-2.5-1.5-2.1-1.1-5-1.4-7.5-.3-2 .6-4.4-3.9-5.3-.4-.1-.2-.4-.3-.8 2.7-.3 4.7-.6 6-.3.9.2 2.1.4 4.1 0 4.4-.8 6.5-.4 4 1.1-2.2 1.4-1.9 1.9-.3 2.2 1.2.2 1.2.9.9 1.6-.3.7-.7 1.5-.3 2 1.3 1.9.4 4.7-.6 7.5-.6 1.9-.1 3.4-.4 5.2-.2 1 .1 1.9.5 2.6.4.8 1 1.5 1.6 2.2.1.1.5-.1.4 0-3.5 3.7 2 2.9.2 5.8-.2.3-.3.7-.1.8 1.5.6 2.5 1.5 3.3 2.5.8 1 1.4 2.2 2.2 3.2 1.7 2.3 2.3 5.3 4.3 7.4 1.7 1.8 2.9 3.9 4.1 5.9 1.2 2.1 2.5 4.1 4.5 5.6.7.5.6 1.6 1.1 2.4 2.1 3.6 3.9 7.4 5.9 11.1 1.5 3 3.8 5.5 4.8 8.9.5 1.8 1.1 3.6 1.9 5.2.8 1.6 1.8 3.1 2.9 4.5 1.3 1.5 2.4 3 3.6 4.6 1.1 1.6 2.1 3.2 3.2 4.9 1.7 2.5 2.2 5.7 4.2 8l1.5 1.8c.5.6.9 1.2 1.3 1.9.9 1.3 1.7 2.5 2.4 3.9.3.7.7 1.3 1 2 .2.7.5 1.4.6 2.2.3 1.5.5 3 .4 4.6-.1.4 3 .2-.5 1.4zM24.2 636.3c.3-.1.6-.4 1-.6-.4 0-.7 0-1 .1-.6.2-1.2.6-1 .7.2 0 .7-.1 1-.2zM952.3 332.3c2.4-.8 2 3.4 2.8 5.3 1.7 3.9 3.2 8 4.4 12.1 1.1 4.1 2.1 8.3 3 12.5 1 4.2 1.7 8.4 2.6 12.6.9 4.2 2 8.3 3 12.5 1.3 4.8 2.3 9.7 3.2 14.6.7 4.9 1.3 9.9 2 14.9 1.7 16.2 2.9 32.5 4.1 48.8.2 3.1.4 6.1.3 9.2-.1 3.1-.1 6.1-.1 9.2.6 27.9-3.3 55.7-9.7 82.7-1 4.1-2 8.2-3 12.2-.5 2-1.1 4.1-1.7 6.1l-1.7 6.1-1.7 6.1c-.6 2-1.3 4-1.9 6l-3.8 12c-6 17.7-12.5 35.2-18.6 52.8-3 8.3-5.9 16.6-9.3 24.8-1.7 4.1-3.3 8.2-5.1 12.2-1.8 4-3.6 8.1-5.5 12.1l-1.6 3.5-1.8 3.5-3.6 6.9c-1.2 2.3-2.3 4.6-3.5 7-1.2 2.3-2.3 4.6-3.4 7-4.6 10.2-10.4 19.6-15.6 29.5-2.3 4.3-5 8.3-7.8 12.3l-2.1 3-2.2 2.9c-1.5 2-2.9 3.9-4.3 5.9-1.8 2.5-3.5 5.2-5.4 7.7-1.9 2.5-3.9 4.9-6.1 7-3.4 3.1-6.8 6.7-9.5 9.9-2.2 2.8-4.5 6.3-6.6 9.5-1.4 2.2-3 4.1-4.6 6.1-1.6 1.9-3.4 3.8-5.1 5.7-1.7 1.8-3.4 3.7-5.3 5.5-1.8 1.8-3.6 3.6-5.3 5.4-1.4 1.5-2.9 2.9-4.3 4.4l-2.2 2.2c-.7.8-1.5 1.5-2.2 2.3-2.8 3.1-5.3 6.5-6.6 10.8-.2.7-1.1 1.3-2.2 2.5-1-2.9-1.6-5.1-.8-7.7.6-1.8 1.2-4 .3-6-2-4.3-.6-8.5 3.9-9.2 3.9-.7 5.5-2.7 6.6-6.1.9-2.7 2.8-4.5 4.8-6.2 2-1.7 4.2-3.3 5.8-5.5 1.4-2 3-3.9 4.6-5.7.8-.9 1.7-1.8 2.5-2.7.8-.9 1.7-1.8 2.5-2.6 3.4-3.5 7.1-6.7 10.7-10 4.7-4.4 8.6-9.7 13.1-14.2 2.4-2.5 4.5-5.6 6.5-8.7 1-1.6 2-3.2 2.9-4.8 1-1.6 1.9-3.3 2.8-4.9.2-.3 0-.9.2-1 3.8-1.6 5.7-4.8 7.3-8.1.8-1.7 1.6-3.4 2.5-4.9.9-1.6 2-3 3.5-4.2.7-.5 1.4-1.2 1.6-2 3.5-10.2 9-19.4 13.7-28.9 2.5-5.4 5.4-10.6 8.2-15.8 2.8-5.3 5.4-10.6 7.7-16.1 7.4-18.5 16.7-36.2 22.2-55.4.9-3.4 2.8-6.5 4-9.8l2.3-6.1 2.2-6.1 4.4-12.2 4-12.4 1-3.1c.3-1 .6-2.1.9-3.1l1.7-6.3 1.4-5.1c.5-1.7.9-3.4 1.2-5.1l2.2-10.3 1.1-5.1 1-5.2c.7-3.4 1.4-6.9 2.2-10.3.5-1.8.8-3.7 1.2-5.5l1-5.6 1-5.6.4-2.8.3-2.8c.8-7.5 1.6-15.1 1.5-22.6.4-16.6-.1-33.1-1-49.6-.8-12.9-1-25.8-3.4-38.6-4.6-25.4-11.1-50.2-15.8-75.6.4-2.1-3.4-4.5.1-5.7zM850.4 816c-.2-.2-.8-.1-1.4-.1 0 .6-.1 1.3.1 1.5.5.5 1.2.6 1.6-.2.1-.3 0-1-.3-1.2z"/><path d="M519.8 959c.2-2.6 2.1-.8 3.2-1 2.3-.4 4.5-.5 6.8-.5 2.2 0 4.5.1 6.7.3 2.2.2 4.5.3 6.7.3 2.3 0 4.5-.1 6.7-.5 2.6-.5 5.2-.7 7.8-.8 2.6-.2 5.2-.2 7.8-.3 2.1 0 4.3-.2 6.4-.3 2.1-.1 4.3-.2 6.4-.4 4.2-.5 8.5-1 12.7-2 1.6-.4 3.2-.5 4.8-.7 1.6-.2 3.2-.4 4.8-.7 14.2-3 28.7-4.4 43.2-6.9 8.7-1.5 17.5-3.4 26-5.9 4.8-1.3 9.5-3 14.2-4.7 4.6-1.8 9.2-3.7 13.7-6 4.2-2.1 8.3-4.4 12.5-6.6l6.2-3.3 3.1-1.6 3.1-1.7c2.4-1.3 4.9-2.4 7.3-3.7 2.4-1.3 4.8-2.6 7-4.2 2.4-1.8 4.9-3.3 7.4-4.8s4.9-3.1 7.3-4.9c2.1-1.5 4.2-2.8 6.5-4l3.5-1.7c1.1-.6 2.3-1.2 3.4-1.8 2.9-1.6 5.4-3.8 8.7-4.6 2.5-.6 5.1-1.5 6.9-2.7 1.6-1.1 3.1-2.6 4.6-4.1 2-1.9 4.1-3.5 6.5-4.9l3.5-2.1c1.1-.7 2.3-1.5 3.3-2.3 1.7-1.3 3.7-2.4 5.3-4 1.6-1.6 2.8-3.6 3-6.4 0-.5.6-.7 1.2-1.3 1.3 2.5 2.2 4.3 2.1 6-.1 1.2-.2 2.8.9 4.6 2.3 3.9 1.8 6.9-1.6 6.2-3-.7-4 .3-4.4 2.6-.4 1.8-1.6 2.6-3 3.2-1.4.6-3 1-4.1 2-3.9 3.9-9.4 5.8-14.7 7.4-3.6 1-6.6 3-10 4.1-3.7 1.2-6.9 4.2-10.1 6.6-.1.1-.1.6-.2.6-2.9-1-4.5.1-5.9 1.5-1.5 1.3-2.9 2.9-5.3 2.6-.5-.1-1.1 0-1.4.3-1.9 2.4-4.2 4.2-6.6 5.8-1.2.8-2.4 1.5-3.7 2.3-1.3.7-2.5 1.4-3.7 2.2-1.4.8-2.8 1.6-4.2 2.3-1.4.7-2.9 1.3-4.4 2-3 1.3-5.9 2.6-8.7 4.2-4.6 2.8-9.7 4.8-14.7 6.9-5 2-10 4-14.8 6.6-1.7.9-3.7 1-5.6 1.6-8.9 3-18 5.2-27.1 7.3-3.7.8-7.3 1.8-11 2.7-3.7.8-7.4 1.6-11.2 1.9-4.1.3-8.1.8-12.1 1.3-2 .3-4 .6-6 1-2 .3-4 .7-5.9 1.2-4.3 1.1-8.6 1.8-13 2.6-2.2.3-4.4.6-6.5 1-2.2.3-4.4.6-6.6.8-3.4.4-6.9.5-10.3.6-3.4.1-6.9.3-10.3.7-13.6 1.9-27.6 3.1-41.2-.5-1.1-.6-3.2 2.3-2.9-1.4zm259.7-71.5c.2.3.6.4 1 .7 0-.5.1-.8 0-1.1-.4-.6-.9-1-1.2-.6-.1.1 0 .7.2 1z"/><path d="M714.8 936.2c1.2 2.3-3.6 2.6-5.7 3.9-2.1 1.2-4.3 2.4-6.5 3.6-2.2 1.1-4.4 2.1-6.7 3.1s-4.5 2-6.8 2.9l-6.9 2.6c-4.6 1.8-9.3 3.4-13.9 5.1-4.6 1.8-9.2 3.4-13.8 5.5-2.6 1.2-5.3 2.2-8 3.2s-5.4 1.9-8.1 2.8c-2.8.8-5.5 1.7-8.3 2.5l-4.1 1.2-4.2 1.1c-18.2 4.9-36.5 8.7-54.9 12.7-3.5.8-6.9 1.3-10.5 1.8-3.5.4-7 .9-10.5 1.4-31.8 4.9-64.2 4.1-96 .2-19.2-2.4-38.3-5.9-57.1-10.4-2.6-.6-5.3-1.3-7.9-2l-7.9-2-7.8-2.2c-2.6-.7-5.2-1.4-7.8-2.3-5.2-1.6-10.4-3.1-15.5-4.8l-7.7-2.5-7.7-2.6c-4.9-1.6-9.6-3.4-14.4-5.2l-3.6-1.3-3.5-1.5-7.1-2.9c-9.4-4-18.6-8.2-27.7-12.8l-4-2-4-2.1-7.9-4.3c-2.7-1.4-5.2-2.9-7.9-4.3-2.6-1.4-5.3-2.8-7.9-4.1-2.9-1.5-5.7-3.1-8.5-4.7s-5.6-3.2-8.3-4.9c-5.4-3.5-10.9-6.8-16.3-10.4-2.4-1.5-4.7-3.1-7-4.8-2.3-1.7-4.4-3.5-6.6-5.3-2.2-1.8-4.4-3.6-6.5-5.5l-6.3-5.7c-1.3-1.2-2.7-2.4-4.1-3.6-1.4-1.2-2.7-2.5-4-3.7-2.6-2.5-5.1-5.1-7.3-7.9-3.1-4.4-6.5-8.9-9.9-12.4-2.7-3.1-6.2-6.5-9.4-9.6-2.2-2-4-4.4-5.9-6.6-1.8-2.3-3.6-4.7-5.4-7-1.7-2.4-3.3-4.9-4.9-7.3-1.6-2.5-3.3-4.9-4.9-7.3-2.5-4-4.9-8.2-7.6-12.2l-2.1-3c-.7-1-1.5-1.9-2.3-2.8-1.6-1.8-3.4-3.5-5.4-5-.7-.5-1.1-1.6-2.1-3.2 3.2 0 5.5.1 8 1.9 1.7 1.2 3.8 2.7 6.1 2.4 2.4-.3 4.6.3 6.1 1.5 1.6 1.3 2.7 3.2 2.6 5.7-.1 4.3 1.7 6.7 5 9 2.7 1.8 4.3 4.2 5.7 6.9.7 1.3 1.4 2.7 2.1 4 .4.7.8 1.3 1.2 2 .4.6.9 1.2 1.4 1.8 1.9 2.1 3.7 4.2 5.4 6.4.8 1.1 1.7 2.2 2.5 3.4.8 1.2 1.7 2.2 2.5 3.4l4.8 6.9c.8 1.2 1.5 2.4 2.3 3.5.8 1.1 1.6 2.3 2.4 3.4 2.1 3 4.5 5.9 6.9 8.7 2.5 2.7 5.1 5.4 7.4 8.2 2.5 3.1 5.8 5.9 9.1 8.6 1.7 1.4 3.4 2.7 5.2 4 1.8 1.2 3.6 2.5 5.4 3.7.3.2 1 .2 1.1.3 1.6 4.3 5.1 6.8 8.8 8.9 1.8 1.1 3.7 2.1 5.5 3.3 1.7 1.2 3.3 2.6 4.6 4.3.6.8 1.4 1.6 2.2 2 2.9 1.2 5.6 2.6 8.3 4 2.7 1.5 5.5 2.9 8.1 4.4 2.7 1.5 5.3 3.1 8 4.6 2.7 1.5 5.4 3 8.1 4.4 3 1.6 6 3.3 9 4.9l9 5.1c3 1.6 6 3.3 9.1 4.8 3 1.6 6.1 3.1 9.3 4.4 5.3 2.2 10.5 4.7 15.7 7l7.8 3.6 7.9 3.4c5.3 2.3 10.7 4.3 16 6.3 2.7 1 5.5 1.8 8.2 2.7l4.1 1.2c1.4.4 2.8.8 4.2 1.1 3.9.9 7.6 2.8 11.6 4.1 19.1 5.8 38.4 10.8 58.2 14.2 15.9 2.8 32.1 3.7 48.2 5.4 17.3 1.8 34.9 1.9 52.2 0 19-2.1 37.9-4.9 56.5-8.7 14.6-3 29.3-5.6 43.5-10.2 14.1-4.7 28-9.9 41.8-15.2 13.9-5.2 27.7-10.6 41.7-15.4 2.2-.7 4.6-5 6.3-1.7zm-549.6-81.6c.3-.2.1-.8.2-1.4-.7-.1-1.3-.5-1.6-.3-.6.4-.8 1.2 0 1.7.4.3 1.1.3 1.4 0z"/><path d="M878.1 807.8c1.2 2.3-2.6 2.5-4.2 3.6-3.2 2.3-6.5 4.4-9.9 6.4-3.3 2-6.8 4-10.2 5.8l-2.6 1.4-2.5 1.5c-1.7 1-3.4 2-5.1 3.1s-3.3 2.1-5 3.2c-1.6 1.1-3.2 2.3-4.8 3.5-7.2 5.7-15 10.6-22.7 15.7-12.6 8.3-25.4 16.5-37.7 25.5-2.3 1.7-4.8 3.2-7.2 4.7l-3.7 2.2c-1.2.7-2.5 1.5-3.7 2.3-2.8 1.8-5.5 3.5-8.3 5.2-2.8 1.7-5.7 3.2-8.6 4.8-5.7 3.2-11.8 5.9-17.7 8.7l-2.3 1-2.3.9-4.6 1.8-4.6 1.8c-1.5.6-3.1 1.2-4.6 1.7l-9.4 3.1-4.7 1.5-4.8 1.3c-3.8 1-7.7 2.1-11.5 3.1l-11.7 2.5-5.8 1.3-5.9 1-11.7 2.1c-4.4.7-8.7 1.2-13.1 1.9l-6.5 1-6.6.8c-4.4.5-8.7 1.1-13.1 1.7-4.4.5-8.7 1-13.1 1.5-2.1.3-4.1.6-6.2.8l-6.2.6c-4.1.4-8.3.8-12.4 1.2l-12.4.8-6.2.3-6.2.1c-4.9.1-9.7.1-14.6.1s-9.7 0-14.5.3c-10.4.6-20.8.1-31.2.4-9.1.3-18.1-1-27.2-1.6-5.8-.4-11.7-.2-17.2-1.6-4.2-1.1-8.7-1.9-12.6-2.1-3.3-.1-7.2.1-10.8.3-4.8.3-9.5.1-14.2-.2-4.7-.3-9.4-.6-14.2-.7-7.5-.2-15.7-1.3-22.9 3-.6.4-1.6.1-3 .2 1.1-2.8 2.1-4.7 4.3-6 1.5-.9 3.4-2 4.1-4.2 1.4-4.5 5.4-6.5 8.9-3.8 3.1 2.4 5.5 2.2 8.7.8 2.5-1.2 5-1 7.5-.6s5.1 1.1 7.6.9c4.7-.3 9.4.1 14 .7 4.6.7 9.2 1.7 13.7 2.7 6 1.3 12.2 1.6 18.1 2.8 6.4 1.3 13.9.8 20.9.6.3 0 .8-.5.9-.4 6.2 5 13.8-.1 20.3 3 .7.3 1.6.6 2.4.5 10-2 20.1-1.2 30.1-1.6 2.8-.1 5.6-.1 8.4 0 2.8 0 5.6.1 8.4.2 5.6.1 11.2.3 16.8-.2 18.7-1.4 37.6-.8 56.1-4.4 3.2-.7 6.6-.4 10-.7l3-.3 3-.4 6.1-.8 6.1-.8 3-.4c1-.1 2-.3 3-.5 8-1.4 16.1-2.4 24.1-4.4 3.2-.7 6.5-1.5 9.7-2.3l9.5-2.9 4.8-1.4c1.6-.4 3.1-1.1 4.7-1.6 3.1-1.1 6.3-2.1 9.5-3 .9-.3 1.7-.5 2.6-.8l2.5-.9 5-1.8c3.3-1.3 6.7-2.5 9.9-4s6.5-3 9.7-4.6c1.6-.8 3.2-1.7 4.7-2.6 1.6-.9 3.1-1.8 4.6-2.7l5-3c1.7-1 3.3-2.1 5-3.1 3.3-2.1 6.6-4.1 9.9-6.2l9.8-6.3c3.3-2.1 6.5-4.3 9.7-6.4 10.1-6.7 20.6-12.7 30.3-19.9 9.7-7.1 19.3-14.3 29.5-20.7 2.5-1.6 5.1-3.2 7.7-4.7 2.6-1.5 5.2-2.9 7.9-4.3l4-2.1c1.3-.7 2.7-1.3 4.1-1.9 2.7-1.2 5.5-2.4 8.3-3.5 1.1-.5 2.6-4.7 4.3-1.5zM426.7 932c0-.3-.4-.7-.7-1.2-.5.4-1 .6-1.1.9-.1.7.2 1.4 1 1.2.4 0 .8-.6.8-.9zM82.5 726.8c-.5 1.2-1.3 1.1-2.2.6-.9-.5-1.8-1.4-2.5-1.8-3.2-1.5-5.9-3.7-8.1-6.1-2.2-2.4-3.9-5.1-5.4-7.8-2.9-5.4-4.9-11-7.6-16.2-3.1-6.1-4.6-12.7-5.9-19.2-2.2-10.6-3.5-21.3-5.7-31.7-.8-3.9-.8-8-1.4-12-2.6-18-1.9-36.1-1.4-53.9.2-10.8.3-21.7.1-32.5-.2-12.1-.6-24.2-1.9-36.3-1.3-11.4-2.4-22.8-3-34.2-.3-6.7-.1-13.4-1-20.1-1-7.2-.8-14.4-1.6-21.5-.6-6.3.2-12.6.5-18.9.2-4-.2-8.1 1-12 .9-2.9 1.6-6.1 1.7-8.8.1-2.3-.2-5-.5-7.5-.7-6.6.7-13.2 1-19.8.2-5.2 1.8-10.9-2.3-16-.4-.4-.1-1.1-.1-2.1 2.7.9 4.6 1.6 5.9 3.2.8 1.1 1.9 2.4 4 2.9 4.4 1.1 6.3 3.8 3.5 6.2-2.5 2.1-2.3 3.8-.9 5.9 2.3 3.4-.8 6.9-.5 10.4.6 6.4-1.2 12.9-3 19.1-1.2 4.2-1.3 8.5-2.3 12.6-1 4.5-.3 9.6.2 14.5 0 .2.5.5.4.6-4.7 4.5.6 9.5-2.2 14.2-.3.5-.6 1.2-.4 1.7 2.4 6.8 2 13.9 2.6 20.8.7 7.7-.4 15.5.5 23.3 1.5 12.9.2 26 2.3 38.9.4 2.3-.2 4.6-.2 6.9.2 11.3 0 22.6 0 33.8 0 4.6.2 9.1.4 13.7.1 4.5.1 9.1-.3 13.7-.8 9.8-.8 19.7.4 29.5 1.3 10.7 2.5 21.4 4.1 32.1 1.3 8.3 1.8 16.9 4.3 25.1 2.5 8.1 5.5 16.2 9.1 24 1.8 3.9 3.7 7.8 6.1 11.5 2.4 3.7 5 7.5 8.8 10.7.6.5 1.8.4 2.7.5 1-.2 1.5.3.8 2zM41.3 398.4c.3 0 .7-.3 1.2-.5-.4-.3-.6-.7-.9-.7-.7-.1-1.4.2-1.2.7 0 .2.5.4.9.5zM940.7 304.2c2.3-1.1 1.7 1.4 2.4 2.4 1.5 1.8 2.5 3.9 3.5 6 .9 2.1 1.6 4.3 2.2 6.5l1.8 6.6c.7 2.2 1.3 4.4 2.2 6.5 2 5 2.8 10.3 3.4 15.5 1 8.6 1.3 17.1 2.6 25.5.5 3.2.1 6.4.3 9.6 1 14.4-1.1 28.6-3.1 42.7-1.2 8.5-2.3 17-3 25.4-.4 4.7-.6 9.5-.7 14.2-.1 4.7.2 9.5.6 14.2.9 8.9 2.1 17.8 2.8 26.7.4 5.2.3 10.5 1.4 15.7 1.1 5.6 1.2 11.3 2.1 16.9.8 4.9.1 10 0 15-.1 3.2.4 6.4-.7 9.6-.8 2.4-1.5 4.9-1.5 7.1 0 1.8.3 4 .7 5.9.4 2.6.3 5.2 0 7.9-.3 2.6-.7 5.2-.9 7.8-.1 2.1-.6 4.2-.5 6.4 0 2.2.6 4.3 2.6 6.4.3.4.1.9.1 1.7-2.7-.8-4.6-1.4-5.8-2.7-.8-.9-1.8-2-3.9-2.4-4.4-1-6.2-3.1-3.4-4.9 2.5-1.6 2.4-2.9.9-4.6-2.2-2.7.8-5.4.5-8.1-.3-2.5-.1-5 .5-7.6.6-2.5 1.4-5 2.3-7.5 1.2-3.3 1.1-6.7 2-10 .9-3.6 0-7.6-.6-11.4 0-.2-.5-.4-.4-.5 4.6-3.8-.9-7.5 1.7-11.3.3-.4.5-.9.3-1.3-2.6-5.3-2.4-10.8-3.1-16.3-.8-6.1.1-12.3-.8-18.3-1.5-10.2 0-20.5-1.5-30.7-.3-1.8.4-3.6.5-5.5.4-8.9 1.6-17.7 2.6-26.6.8-7.2.8-14.4 2.2-21.5 1.6-7.7 2.4-15.4 2-23.2-.4-8.5-.7-17.1-1.3-25.6-.5-6.7-.2-13.5-1.8-20.1-1.6-6.6-3.5-13-5.4-19.5-1.9-6.4-3.8-12.8-5.4-19.6-.2-.9-3.7-1.3-.4-3zM954 567.1c-.3 0-.7.2-1.1.4.4.2.6.5.9.5.7 0 1.4-.2 1.2-.6-.1-.1-.6-.3-1-.3zM312.6 80.5C325 69.9 339.1 61.2 354 54.1c14.9-7.1 30.6-12.6 46.5-17.1 31.8-9.1 64.5-14.4 96.4-21.9-31.5 9-63.9 16.3-95.3 25.8-31.4 9.6-61.9 21.5-89 39.6z"/></svg>